<svg xmlns="http://www.w3.org/2000/svg" width="940" height="140" viewBox="0 0 940 140" role="img" aria-labelledby="title desc">
  <title id="title">Computing Revision Platform</title>
  <desc id="desc">A light coloured logo for Computing Revision Platform with a computer, book and circuit icon and OCR GCSE Computer Science J277 subtitle.</desc>
  <defs>
    <linearGradient id="aqua" x1="0" x2="1" y1="0" y2="0">
      <stop offset="0" stop-color="#79eef3"/>
      <stop offset="1" stop-color="#c7fff8"/>
    </linearGradient>
    <filter id="softShadow" x="-20%" y="-20%" width="140%" height="140%">
      <feDropShadow dx="0" dy="3" stdDeviation="3" flood-color="#001c24" flood-opacity="0.45"/>
    </filter>
  </defs>
  <rect width="940" height="140" fill="none"/>
  <g filter="url(#softShadow)" stroke-linecap="round" stroke-linejoin="round">
    <rect x="14" y="18" width="88" height="62" rx="8" fill="none" stroke="#ecfeff" stroke-width="5"/>
    <path d="M31 64 C42 58 51 58 58 64 C65 58 74 58 85 64" fill="none" stroke="#ecfeff" stroke-width="4"/>
    <path d="M31 71 H56 M60 71 H85" stroke="#7fe7ef" stroke-width="4"/>
    <path d="M58 63 V33" stroke="#f7b03b" stroke-width="4"/>
    <circle cx="58" cy="28" r="6" fill="none" stroke="#f7b03b" stroke-width="4"/>
    <path d="M44 53 V43 L35 36 M72 53 V43 L81 36 M58 49 L50 42 M58 49 L66 42" fill="none" stroke="#7fe7ef" stroke-width="4"/>
    <circle cx="35" cy="36" r="4" fill="#7fe7ef"/>
    <circle cx="81" cy="36" r="4" fill="#7fe7ef"/>
    <rect x="42" y="87" width="32" height="8" rx="2" fill="#ecfeff" stroke="none"/>
    <rect x="32" y="101" width="52" height="6" rx="3" fill="#ecfeff" stroke="none"/>
  </g>
  <g font-family="Arial, Helvetica, sans-serif" filter="url(#softShadow)">
    <text x="122" y="56" font-size="42" font-weight="800" fill="#ffffff">
      <tspan>Computing</tspan>
      <tspan dx="8" fill="url(#aqua)">Revision Platform</tspan>
    </text>
    <line x1="122" y1="82" x2="217" y2="82" stroke="#f2a541" stroke-width="4"/>
    <line x1="755" y1="82" x2="850" y2="82" stroke="#f2a541" stroke-width="4"/>
    <text x="238" y="90" font-size="17" font-weight="700" letter-spacing="5" fill="#f4ffff">OCR GCSE COMPUTER SCIENCE J277</text>
  </g>
</svg>
